<svg xmlns="http://www.w3.org/2000/svg" viewBox="0 0 240 60" width="960" height="240">
  <style>
    .wm-title { font-family: 'Press Start 2P', 'Courier New', monospace; font-size: 16px; fill: #e8f0d0; letter-spacing: 2px; }
    .wm-tag   { font-family: 'Inter', -apple-system, sans-serif; font-size: 7px; fill: #a8c060; letter-spacing: 4px; }
  </style>

  <!-- frog mark on the left, 48x48 area starting at (6,6) -->
  <g transform="translate(6 6) scale(3)" shape-rendering="crispEdges">
    <rect x="2" y="2" width="3" height="1" fill="#3a5a2a"/>
    <rect x="11" y="2" width="3" height="1" fill="#3a5a2a"/>
    <rect x="1" y="3" width="5" height="4" fill="#5a8a3a"/>
    <rect x="10" y="3" width="5" height="4" fill="#5a8a3a"/>
    <rect x="2" y="4" width="3" height="2" fill="#e8f0d0"/>
    <rect x="11" y="4" width="3" height="2" fill="#e8f0d0"/>
    <rect x="3" y="4" width="1" height="2" fill="#0d1a0d"/>
    <rect x="12" y="4" width="1" height="2" fill="#0d1a0d"/>
    <rect x="0" y="7" width="16" height="7" fill="#5a8a3a"/>
    <rect x="0" y="7" width="16" height="1" fill="#7a9a4a"/>
    <rect x="0" y="13" width="16" height="1" fill="#3a5a2a"/>
    <rect x="5" y="10" width="6" height="1" fill="#2a3a1a"/>
    <rect x="4" y="8" width="1" height="1" fill="#3a5a2a"/>
    <rect x="11" y="8" width="1" height="1" fill="#3a5a2a"/>
  </g>

  <!-- wordmark -->
  <text x="64" y="28" class="wm-title">THE SWAMPERS</text>
  <text x="64" y="44" class="wm-tag">FROM THE MURK, WE RISE</text>
</svg>
